# xmcd
#
# Track frame offsets: 
#        150
#        11942
#        29875
#        51500
#        69270
#        86594
#        101145
#        116779
#        143946
#        160195
#        173027
#
# Disc length: 2546 seconds
#
# Revision: 0
# Processed by: cddbd v1.5.2PL0 Copyright (c) Steve Scherf et al.
# Submitted via: ExactAudioCopy v1.1
#
DISCID=9f09f00b
DTITLE=Rob Heron and the Teapad Orchestra - Money Isn't Everything
DYEAR=1900
DGENRE=
TTITLE0=Danse De La Limonade
TTITLE1=Great Fire of Byker
TTITLE2=Money Isn't Everything
TTITLE3=Quaich Keeper's blues
TTITLE4=Bairro Alto
TTITLE5=Bank Failure
TTITLE6=Hot Bath
TTITLE7=Rich Man Now
TTITLE8=Steamboat Blues
TTITLE9=Hangover Blues
TTITLE10=She Don't Like Fish
EXTD=
EXTT0=
EXTT1=
EXTT2=
EXTT3=
EXTT4=
EXTT5=
EXTT6=
EXTT7=
EXTT8=
EXTT9=
EXTT10=
PLAYORDER=
